# xmcd CD database file
#
# Track frame offsets:
#	150
#	9312
#	20645
#	31711
#	38899
#	48554
#	57501
#	68978
#	76454
#	87895
#	98205
#	109969
#	125654
#	134703
#
# Disc length: 1940 seconds
#
# Revision: 0
# Processed by: cddbd v1.5.2PL0 Copyright (c) Steve Scherf et al.
# Submitted via: CDex 1.70beta2
#
DISCID=c107920e
DTITLE=Phil Hummer and the White Falcons - Sad Songs and Whiskey
DYEAR=2008
DGENRE=Country
TTITLE0=Switchblade Knife
TTITLE1=Sad Songs and Whiskey
TTITLE2=Modern Day Girl
TTITLE3=Pretty Kitty 
TTITLE4=Toward
TTITLE5=No Matter What I Do
TTITLE6=Johney Too Damn Bad
TTITLE7=Looney Tune
TTITLE8=Chocolate Easter Bunny
TTITLE9=Some Folks
TTITLE10=Lord's My Shepherd
TTITLE11=Alki Boy Blues
TTITLE12=Crutch
TTITLE13=Darlin Are You Alright
EXTD=YEAR: 2008
EXTT0=
EXTT1=
EXTT2=
EXTT3=
EXTT4=
EXTT5=
EXTT6=
EXTT7=
EXTT8=
EXTT9=
EXTT10=
EXTT11=
EXTT12=
EXTT13=
PLAYORDER=
